# xmcd
#
# Track frame offsets:
#	150
#	10910
#	22760
#	35962
#	44557
#	52665
#	63005
#	72772
#	80987
#	89497
#	98727
#	109515
#	120467
#	132002
#	141880
#	151832
#	163220
#	171420
#	182945
#	191347
#
# Disc length: 2692 seconds
#
# Revision: 0
# Processed by: cddbd v1.5.2PL0 Copyright (c) Steve Scherf et al.
# Submitted via: EZCDAudioConverter 1.3.4.1
#
DISCID=090a8214
DTITLE=Various Artist - Lost Legends Of Surf Guitar 1/4
DYEAR=2003
DGENRE=
TTITLE0=The Chandelles - El Gato
TTITLE1=Royal Coachmen - Loophole
TTITLE2=Ebb Tides - Big Noise From Waimea
TTITLE3=Dave Myers and His Surf-Tones - Gear!
TTITLE4=Steve and The Emperors - The Breeze And I
TTITLE5=Original Surfaris - Failsafe
TTITLE6=The Chandelles - Jetster
TTITLE7=The Tandems - The Rising Surf
TTITLE8=The Pyramids - Contact
TTITLE9=Original Surfaris - Surfs Up
TTITLE10=The Essex - Cemetary Stomp
TTITLE11=The Jesters - The Jester
TTITLE12=Royal Coachmen - Repeating
TTITLE13=The Pyramids - Pressure
TTITLE14=The Menn - Ian Fleming Theme
TTITLE15=The Essex - Pray For Surf
TTITLE16=Surf Teens - Point Surf
TTITLE17=The Centurions - Ishamatsu
TTITLE18=Original Surfaris - Exotic
TTITLE19=The Tandems - Beyond The Surf
EXTD=
EXTT0=
EXTT1=
EXTT2=
EXTT3=
EXTT4=
EXTT5=
EXTT6=
EXTT7=
EXTT8=
EXTT9=
EXTT10=
EXTT11=
EXTT12=
EXTT13=
EXTT14=
EXTT15=
EXTT16=
EXTT17=
EXTT18=
EXTT19=
PLAYORDER=
